HIERARCHY
ROOT hip
{
	OFFSET 0.000000 0.000000 0.000000 
	CHANNELS 6 Xposition Yposition Zposition Xrotation Zrotation Yrotation
	JOINT abdomen
	{
		OFFSET 0.000000 3.402643 0.000000 
		CHANNELS 3 Xrotation Zrotation Yrotation
		JOINT chest
		{
			OFFSET 0.000000 8.438565 -0.680529 
			CHANNELS 3 Xrotation Zrotation Yrotation
			JOINT neck
			{
				OFFSET 0.000000 10.207942 -0.272212 
				CHANNELS 3 Xrotation Zrotation Yrotation
				JOINT head
				{
					OFFSET 0.000000 3.130431 0.000000 
					CHANNELS 3 Xrotation Zrotation Yrotation
					End Site
					{
						OFFSET 0.000000 3.130435 0.000000 
					}
				}
			}
			JOINT lCollar
			{
				OFFSET 3.470700 6.669187 -0.816635 
				CHANNELS 3 Yrotation Zrotation Xrotation
				JOINT lShldr
				{
					OFFSET 3.198488 0.000000 0.000000 
					CHANNELS 3 Zrotation Yrotation Xrotation
					JOINT lForeArm
					{
						OFFSET 10.139888 0.000000 0.000000 
						CHANNELS 3 Yrotation Zrotation Xrotation
						JOINT lHand
						{
							OFFSET 8.370511 0.000000 0.000000 
							CHANNELS 3 Zrotation Yrotation Xrotation
							End Site
							{
								OFFSET 4.083176 0.000000 0.000000 
							}
						}
					}
				}
			}
			JOINT rCollar
			{
				OFFSET -3.470700 6.669187 -0.816635 
				CHANNELS 3 Yrotation Zrotation Xrotation
				JOINT rShldr
				{
					OFFSET -3.198488 0.000000 0.000000 
					CHANNELS 3 Zrotation Yrotation Xrotation
					JOINT rForeArm
					{
						OFFSET -10.139888 0.000000 0.000000 
						CHANNELS 3 Yrotation Zrotation Xrotation
						JOINT rHand
						{
							OFFSET -8.370511 0.000000 0.000000 
							CHANNELS 3 Zrotation Yrotation Xrotation
							End Site
							{
								OFFSET -4.083176 0.000000 0.000000 
							}
						}
					}
				}
			}
		}
	}
	JOINT lThigh
	{
		OFFSET 5.308129 -1.633274 1.361059 
		CHANNELS 3 Xrotation Zrotation Yrotation
		JOINT lShin
		{
			OFFSET -2.041588 -20.007561 0.000000 
			CHANNELS 3 Xrotation Zrotation Yrotation
			JOINT lFoot
			{
				OFFSET 0.000000 -19.190928 -1.224953 
				CHANNELS 3 Xrotation Yrotation Zrotation
				End Site
				{
					OFFSET 0.000000 -2.449906 4.627600 
				}
			}
		}
	}
	JOINT rThigh
	{
		OFFSET -5.308129 -1.633274 1.361059 
		CHANNELS 3 Xrotation Zrotation Yrotation
		JOINT rShin
		{
			OFFSET 2.041588 -20.007561 0.000000 
			CHANNELS 3 Xrotation Zrotation Yrotation
			JOINT rFoot
			{
				OFFSET 0.000000 -19.190928 -1.224953 
				CHANNELS 3 Xrotation Yrotation Zrotation
				End Site
				{
					OFFSET 0.000000 -2.449906 4.627600 
				}
			}
		}
	}
}
MOTION
Frames: 6
Frame Time: 0.033333
-24.842905 40.762203 6.406178 0.272241 14.413907 92.167671 27.752214 1.834420 -3.131929 -20.839844 0.000000 0.000000 -0.709859 -9.497748 -32.426792 -2.520846 -1.255050 0.218350 -4.754607 -0.109226 -0.002657 -11.791922 39.039009 -38.643429 -89.765739 25.188993 -40.473915 -9.331977 -20.566322 -58.504948 4.754607 0.109226 -0.002676 0.437053 -19.920887 -32.044907 30.492243 -5.109029 -42.460030 7.813392 6.412298 -49.250225 -4.618095 -5.025948 -22.412449 52.281796 2.890384 -1.835382 -27.369568 19.587858 15.853644 12.906382 -29.030277 -21.125317 17.695253 4.292059 11.692768 -17.476360 14.917403 10.615399 
-24.764223 40.790638 5.624847 -0.665071 14.276421 93.449516 27.405676 1.487408 -4.430808 -20.839844 0.000000 0.000000 -0.086931 -7.911894 -26.334721 -2.520846 -1.255050 0.218350 -4.754607 -0.109226 -0.002657 -13.408625 37.618114 -38.396336 -79.330444 23.748331 -44.741913 -13.151898 -22.028378 -57.404270 4.754607 0.109226 -0.002676 8.855934 -25.804331 -34.969025 48.311649 -12.092635 -43.553642 6.049707 4.851261 -47.285183 2.414276 -11.528572 -35.829086 47.481689 11.126009 -1.047466 -22.123035 36.252899 11.073625 11.274753 -28.530073 -19.372173 21.650223 3.755533 11.617729 -19.311672 13.180201 8.074296 
-24.669279 40.867302 4.852676 -1.601298 14.145086 94.562080 27.168570 1.186750 -5.773979 -20.839844 0.000000 0.000000 0.459414 -6.221060 -19.715361 -2.520846 -1.255050 0.218350 -4.754607 -0.109226 -0.002657 -14.376756 35.377224 -38.806175 -67.712074 22.351059 -48.896938 -18.086349 -22.177423 -55.475056 4.754607 0.109226 -0.002676 16.258158 -28.750418 -38.077488 62.440044 -19.407812 -42.065674 6.553032 4.292654 -46.835152 6.887100 -12.087974 -40.188225 42.792103 16.065084 -2.356880 -17.883383 42.347752 7.143591 9.685623 -28.113329 -18.091423 25.546402 3.306487 11.415441 -21.131741 11.994157 6.062612 
-24.556070 40.999298 4.099274 -2.516309 14.010448 95.368576 27.073223 0.820387 -7.083363 -20.839844 0.000000 0.000000 0.984311 -4.323807 -12.781255 -2.520846 -1.255050 0.218350 -4.754607 -0.109226 -0.002657 -15.692566 31.017420 -41.641659 -55.646118 22.678833 -52.750076 -24.843246 -18.711439 -51.024029 4.754607 0.109226 -0.002676 22.664194 -29.731865 -41.664066 75.897705 -26.267004 -39.661980 8.549154 2.337121 -48.889908 8.747368 -10.507591 -40.144821 38.524616 17.812141 -4.434518 -15.987212 43.388908 4.725500 7.945060 -27.953064 -17.359095 29.619867 3.072076 11.191214 -22.843086 11.666331 3.847734 
-24.435244 41.188156 3.384460 -3.419902 13.853193 95.821327 27.068703 0.296327 -8.278738 -20.839844 0.000000 0.000000 1.566449 -2.175076 -5.680102 -2.520846 -1.255050 0.218350 -4.754607 -0.109226 -0.002657 -17.298056 26.034073 -45.976620 -45.304180 24.169502 -55.889404 -30.160364 -12.595646 -45.151188 4.754607 0.109226 -0.002676 27.982018 -28.707941 -44.949696 89.383255 -31.589685 -35.326591 10.621536 0.289442 -51.852264 10.631709 -8.828328 -39.945484 34.023201 19.352131 -6.646990 -13.897915 44.428978 1.768987 5.786190 -27.999506 -16.791378 34.192234 2.905823 11.084097 -24.256115 11.849350 1.282888 
-24.313398 41.444527 2.719894 -4.371994 13.662799 96.008018 27.129807 -0.394528 -9.389363 -20.839844 0.000000 0.000000 2.277851 0.185822 1.436424 -2.520846 -1.255050 0.218350 -4.754607 -0.109226 -0.002657 -18.478289 22.292585 -49.628349 -37.861301 24.933067 -57.549843 -31.240641 -6.805787 -39.189808 4.754607 0.109226 -0.002676 32.528522 -26.248348 -47.281944 102.830666 -34.424606 -28.740658 11.441569 -0.203455 -53.769081 12.387251 -6.924828 -39.669701 29.378010 20.489260 -9.015738 -11.612462 45.396038 -1.286114 3.043545 -27.911802 -15.778529 39.312229 2.514977 11.029078 -25.164362 11.659152 -0.559853 
